<svg width="706" height="200" viewBox="0 0 706 200" fill="none" xmlns="http://www.w3.org/2000/svg">
<path d="M68.6976 165H700.716" stroke="black"/>
<path d="M174.034 171V165" stroke="black"/>
<path d="M174.034 191.639C173.392 191.639 172.845 191.465 172.393 191.115C171.942 190.763 171.596 190.253 171.358 189.585C171.119 188.915 171 188.105 171 187.156C171 186.213 171.119 185.408 171.358 184.74C171.599 184.07 171.946 183.558 172.398 183.206C172.852 182.851 173.398 182.673 174.034 182.673C174.67 182.673 175.214 182.851 175.666 183.206C176.121 183.558 176.467 184.07 176.706 184.74C176.947 185.408 177.068 186.213 177.068 187.156C177.068 188.105 176.949 188.915 176.71 189.585C176.471 190.253 176.126 190.763 175.675 191.115C175.223 191.465 174.676 191.639 174.034 191.639ZM174.034 190.702C174.67 190.702 175.165 190.395 175.517 189.781C175.869 189.168 176.045 188.293 176.045 187.156C176.045 186.401 175.964 185.757 175.802 185.226C175.643 184.695 175.413 184.29 175.112 184.011C174.814 183.733 174.454 183.594 174.034 183.594C173.403 183.594 172.91 183.905 172.555 184.527C172.2 185.146 172.023 186.023 172.023 187.156C172.023 187.912 172.102 188.554 172.261 189.083C172.42 189.611 172.649 190.013 172.947 190.288C173.248 190.564 173.611 190.702 174.034 190.702Z" fill="black"/>
<path d="M384.707 171V165" stroke="black"/>
<path d="M385.889 182.793V191.52H384.832V183.901H384.781L382.65 185.315V184.242L384.832 182.793H385.889Z" fill="black"/>
<path d="M595.379 171V165" stroke="black"/>
<path d="M592.65 191.52V190.753L595.53 187.6C595.869 187.23 596.147 186.909 596.366 186.636C596.584 186.361 596.746 186.102 596.852 185.861C596.959 185.617 597.013 185.361 597.013 185.094C597.013 184.787 596.94 184.521 596.792 184.297C596.647 184.073 596.448 183.899 596.195 183.777C595.942 183.655 595.658 183.594 595.343 183.594C595.008 183.594 594.715 183.663 594.465 183.803C594.218 183.939 594.026 184.131 593.89 184.378C593.756 184.625 593.69 184.915 593.69 185.247H592.684C592.684 184.736 592.802 184.287 593.038 183.901C593.273 183.514 593.594 183.213 594.001 182.997C594.41 182.781 594.869 182.673 595.377 182.673C595.888 182.673 596.342 182.781 596.736 182.997C597.131 183.213 597.441 183.504 597.665 183.871C597.89 184.237 598.002 184.645 598.002 185.094C598.002 185.415 597.944 185.729 597.827 186.036C597.714 186.34 597.515 186.679 597.231 187.054C596.95 187.426 596.559 187.881 596.059 188.418L594.099 190.514V190.583H598.155V191.52H592.65Z" fill="black"/>
<path d="M68.6976 5V165" stroke="black"/>
<path d="M62.3563 165H68.6976" stroke="black"/>
<path d="M53.3218 169.379C52.6798 169.379 52.1329 169.205 51.6812 168.855C51.2295 168.503 50.8843 167.993 50.6457 167.325C50.4071 166.655 50.2878 165.845 50.2878 164.896C50.2878 163.953 50.4071 163.148 50.6457 162.48C50.8872 161.81 51.2338 161.298 51.6855 160.946C52.14 160.591 52.6855 160.413 53.3218 160.413C53.9582 160.413 54.5022 160.591 54.954 160.946C55.4085 161.298 55.7551 161.81 55.9937 162.48C56.2352 163.148 56.3559 163.953 56.3559 164.896C56.3559 165.845 56.2366 166.655 55.998 167.325C55.7593 167.993 55.4142 168.503 54.9625 168.855C54.5108 169.205 53.9639 169.379 53.3218 169.379ZM53.3218 168.442C53.9582 168.442 54.4525 168.135 54.8048 167.521C55.1571 166.908 55.3332 166.033 55.3332 164.896C55.3332 164.141 55.2522 163.497 55.0903 162.966C54.9312 162.435 54.7011 162.03 54.4 161.751C54.1017 161.473 53.7423 161.334 53.3218 161.334C52.6912 161.334 52.1983 161.645 51.8432 162.267C51.488 162.886 51.3105 163.763 51.3105 164.896C51.3105 165.652 51.39 166.294 51.5491 166.822C51.7082 167.351 51.9369 167.753 52.2352 168.028C52.5363 168.304 52.8986 168.442 53.3218 168.442Z" fill="black"/>
<path d="M62.3563 125H68.6976" stroke="black"/>
<path d="M33.1645 120.533V129.26H32.1077V121.641H32.0566L29.9259 123.055V121.982L32.1077 120.533H33.1645ZM38.4017 129.379C37.9017 129.379 37.4515 129.28 37.0509 129.081C36.6503 128.882 36.3293 128.609 36.0878 128.263C35.8464 127.916 35.7142 127.521 35.6915 127.078H36.7142C36.754 127.473 36.933 127.8 37.2512 128.058C37.5722 128.314 37.9557 128.442 38.4017 128.442C38.7597 128.442 39.0779 128.358 39.3563 128.19C39.6375 128.023 39.8577 127.793 40.0168 127.5C40.1787 127.205 40.2597 126.871 40.2597 126.499C40.2597 126.118 40.1759 125.778 40.0083 125.48C39.8435 125.179 39.6162 124.942 39.3265 124.769C39.0367 124.595 38.7057 124.507 38.3336 124.504C38.0665 124.501 37.7924 124.543 37.5111 124.628C37.2299 124.71 36.9983 124.817 36.8165 124.947L35.8279 124.828L36.3563 120.533H40.8904V121.47H37.2427L36.9358 124.044H36.987C37.166 123.902 37.3904 123.784 37.6603 123.69C37.9302 123.597 38.2114 123.55 38.504 123.55C39.0381 123.55 39.514 123.678 39.9316 123.933C40.352 124.186 40.6816 124.533 40.9202 124.973C41.1617 125.413 41.2824 125.916 41.2824 126.482C41.2824 127.038 41.1574 127.536 40.9074 127.973C40.6603 128.408 40.3194 128.751 39.8847 129.004C39.45 129.254 38.9557 129.379 38.4017 129.379ZM45.8218 129.379C45.1798 129.379 44.6329 129.205 44.1812 128.855C43.7295 128.503 43.3843 127.993 43.1457 127.325C42.9071 126.655 42.7878 125.845 42.7878 124.896C42.7878 123.953 42.9071 123.148 43.1457 122.48C43.3872 121.81 43.7338 121.298 44.1855 120.946C44.64 120.591 45.1855 120.413 45.8218 120.413C46.4582 120.413 47.0022 120.591 47.454 120.946C47.9085 121.298 48.2551 121.81 48.4937 122.48C48.7352 123.148 48.8559 123.953 48.8559 124.896C48.8559 125.845 48.7366 126.655 48.498 127.325C48.2593 127.993 47.9142 128.503 47.4625 128.855C47.0108 129.205 46.4639 129.379 45.8218 129.379ZM45.8218 128.442C46.4582 128.442 46.9525 128.135 47.3048 127.521C47.6571 126.908 47.8332 126.033 47.8332 124.896C47.8332 124.141 47.7522 123.497 47.5903 122.966C47.4312 122.435 47.2011 122.03 46.9 121.751C46.6017 121.473 46.2423 121.334 45.8218 121.334C45.1912 121.334 44.6983 121.645 44.3432 122.267C43.988 122.886 43.8105 123.763 43.8105 124.896C43.8105 125.652 43.89 126.294 44.0491 126.822C44.2082 127.351 44.4369 127.753 44.7352 128.028C45.0363 128.304 45.3986 128.442 45.8218 128.442ZM53.3218 129.379C52.6798 129.379 52.1329 129.205 51.6812 128.855C51.2295 128.503 50.8843 127.993 50.6457 127.325C50.4071 126.655 50.2878 125.845 50.2878 124.896C50.2878 123.953 50.4071 123.148 50.6457 122.48C50.8872 121.81 51.2338 121.298 51.6855 120.946C52.14 120.591 52.6855 120.413 53.3218 120.413C53.9582 120.413 54.5022 120.591 54.954 120.946C55.4085 121.298 55.7551 121.81 55.9937 122.48C56.2352 123.148 56.3559 123.953 56.3559 124.896C56.3559 125.845 56.2366 126.655 55.998 127.325C55.7593 127.993 55.4142 128.503 54.9625 128.855C54.5108 129.205 53.9639 129.379 53.3218 129.379ZM53.3218 128.442C53.9582 128.442 54.4525 128.135 54.8048 127.521C55.1571 126.908 55.3332 126.033 55.3332 124.896C55.3332 124.141 55.2522 123.497 55.0903 122.966C54.9312 122.435 54.7011 122.03 54.4 121.751C54.1017 121.473 53.7423 121.334 53.3218 121.334C52.6912 121.334 52.1983 121.645 51.8432 122.267C51.488 122.886 51.3105 123.763 51.3105 124.896C51.3105 125.652 51.39 126.294 51.5491 126.822C51.7082 127.351 51.9369 127.753 52.2352 128.028C52.5363 128.304 52.8986 128.442 53.3218 128.442Z" fill="black"/>
<path d="M62.3563 85H68.6976" stroke="black"/>
<path d="M30.7835 89.3793C30.221 89.3793 29.7196 89.2827 29.2792 89.0895C28.8417 88.8964 28.4937 88.6279 28.2352 88.2841C27.9795 87.9376 27.8403 87.5356 27.8176 87.0782H28.8915C28.9142 87.3594 29.0108 87.6023 29.1812 87.8069C29.3517 88.0086 29.5747 88.1648 29.8503 88.2756C30.1258 88.3864 30.4312 88.4418 30.7665 88.4418C31.1415 88.4418 31.4738 88.3765 31.7636 88.2458C32.0534 88.1151 32.2807 87.9333 32.4454 87.7003C32.6102 87.4674 32.6926 87.1975 32.6926 86.8907C32.6926 86.5697 32.613 86.287 32.454 86.0427C32.2949 85.7955 32.0619 85.6023 31.7551 85.4631C31.4483 85.3239 31.0733 85.2543 30.6301 85.2543H29.9312V84.3168H30.6301C30.9767 84.3168 31.2807 84.2543 31.542 84.1293C31.8062 84.0043 32.0122 83.8282 32.1599 83.6009C32.3105 83.3736 32.3858 83.1066 32.3858 82.7998C32.3858 82.5043 32.3204 82.2472 32.1898 82.0285C32.0591 81.8097 31.8744 81.6393 31.6358 81.5171C31.4 81.3949 31.1216 81.3339 30.8005 81.3339C30.4994 81.3339 30.2153 81.3893 29.9483 81.5001C29.6841 81.608 29.4682 81.7657 29.3005 81.9731C29.1329 82.1776 29.042 82.4248 29.0278 82.7145H28.0051C28.0221 82.2572 28.1599 81.8566 28.4184 81.5128C28.677 81.1662 29.015 80.8964 29.4326 80.7032C29.8531 80.51 30.3148 80.4134 30.8176 80.4134C31.3574 80.4134 31.8204 80.5228 32.2068 80.7415C32.5932 80.9574 32.89 81.2429 33.0974 81.5981C33.3048 81.9532 33.4085 82.3367 33.4085 82.7486C33.4085 83.2401 33.2792 83.6591 33.0207 84.0057C32.765 84.3523 32.417 84.5924 31.9767 84.7259V84.7941C32.5278 84.885 32.9582 85.1194 33.2679 85.4972C33.5775 85.8722 33.7324 86.3367 33.7324 86.8907C33.7324 87.3651 33.6031 87.7912 33.3446 88.1691C33.0889 88.5441 32.7395 88.8395 32.2963 89.0554C31.8531 89.2714 31.3488 89.3793 30.7835 89.3793ZM38.3219 89.3793C37.6798 89.3793 37.1329 89.2046 36.6812 88.8552C36.2295 88.5029 35.8844 87.9929 35.6457 87.3253C35.4071 86.6549 35.2878 85.8452 35.2878 84.8964C35.2878 83.9532 35.4071 83.1478 35.6457 82.4802C35.8872 81.8097 36.2338 81.2983 36.6855 80.9461C37.14 80.591 37.6855 80.4134 38.3219 80.4134C38.9582 80.4134 39.5023 80.591 39.954 80.9461C40.4085 81.2983 40.7551 81.8097 40.9937 82.4802C41.2352 83.1478 41.3559 83.9532 41.3559 84.8964C41.3559 85.8452 41.2366 86.6549 40.998 87.3253C40.7594 87.9929 40.4142 88.5029 39.9625 88.8552C39.5108 89.2046 38.9639 89.3793 38.3219 89.3793ZM38.3219 88.4418C38.9582 88.4418 39.4525 88.135 39.8048 87.5214C40.1571 86.9077 40.3332 86.0327 40.3332 84.8964C40.3332 84.1407 40.2523 83.4972 40.0903 82.966C39.9312 82.4347 39.7011 82.0299 39.4 81.7515C39.1017 81.4731 38.7423 81.3339 38.3219 81.3339C37.6912 81.3339 37.1983 81.6449 36.8432 82.2671C36.488 82.8864 36.3105 83.7628 36.3105 84.8964C36.3105 85.652 36.39 86.2941 36.5491 86.8225C36.7082 87.3509 36.9369 87.7529 37.2352 88.0285C37.5363 88.304 37.8986 88.4418 38.3219 88.4418ZM45.8219 89.3793C45.1798 89.3793 44.6329 89.2046 44.1812 88.8552C43.7295 88.5029 43.3844 87.9929 43.1457 87.3253C42.9071 86.6549 42.7878 85.8452 42.7878 84.8964C42.7878 83.9532 42.9071 83.1478 43.1457 82.4802C43.3872 81.8097 43.7338 81.2983 44.1855 80.9461C44.64 80.591 45.1855 80.4134 45.8219 80.4134C46.4582 80.4134 47.0023 80.591 47.454 80.9461C47.9085 81.2983 48.2551 81.8097 48.4937 82.4802C48.7352 83.1478 48.8559 83.9532 48.8559 84.8964C48.8559 85.8452 48.7366 86.6549 48.498 87.3253C48.2594 87.9929 47.9142 88.5029 47.4625 88.8552C47.0108 89.2046 46.4639 89.3793 45.8219 89.3793ZM45.8219 88.4418C46.4582 88.4418 46.9525 88.135 47.3048 87.5214C47.6571 86.9077 47.8332 86.0327 47.8332 84.8964C47.8332 84.1407 47.7523 83.4972 47.5903 82.966C47.4312 82.4347 47.2011 82.0299 46.9 81.7515C46.6017 81.4731 46.2423 81.3339 45.8219 81.3339C45.1912 81.3339 44.6983 81.6449 44.3432 82.2671C43.988 82.8864 43.8105 83.7628 43.8105 84.8964C43.8105 85.652 43.89 86.2941 44.0491 86.8225C44.2082 87.3509 44.4369 87.7529 44.7352 88.0285C45.0363 88.304 45.3986 88.4418 45.8219 88.4418ZM53.3219 89.3793C52.6798 89.3793 52.1329 89.2046 51.6812 88.8552C51.2295 88.5029 50.8844 87.9929 50.6457 87.3253C50.4071 86.6549 50.2878 85.8452 50.2878 84.8964C50.2878 83.9532 50.4071 83.1478 50.6457 82.4802C50.8872 81.8097 51.2338 81.2983 51.6855 80.9461C52.14 80.591 52.6855 80.4134 53.3219 80.4134C53.9582 80.4134 54.5023 80.591 54.954 80.9461C55.4085 81.2983 55.7551 81.8097 55.9937 82.4802C56.2352 83.1478 56.3559 83.9532 56.3559 84.8964C56.3559 85.8452 56.2366 86.6549 55.998 87.3253C55.7594 87.9929 55.4142 88.5029 54.9625 88.8552C54.5108 89.2046 53.9639 89.3793 53.3219 89.3793ZM53.3219 88.4418C53.9582 88.4418 54.4525 88.135 54.8048 87.5214C55.1571 86.9077 55.3332 86.0327 55.3332 84.8964C55.3332 84.1407 55.2523 83.4972 55.0903 82.966C54.9312 82.4347 54.7011 82.0299 54.4 81.7515C54.1017 81.4731 53.7423 81.3339 53.3219 81.3339C52.6912 81.3339 52.1983 81.6449 51.8432 82.2671C51.488 82.8864 51.3105 83.7628 51.3105 84.8964C51.3105 85.652 51.39 86.2941 51.5491 86.8225C51.7082 87.3509 51.9369 87.7529 52.2352 88.0285C52.5363 88.304 52.8986 88.4418 53.3219 88.4418Z" fill="black"/>
<path d="M62.3563 45H68.6976" stroke="black"/>
<path d="M27.7707 47.4702V46.6009L31.6059 40.5327H32.2366V41.8793H31.8105L28.9128 46.4645V46.5327H34.0775V47.4702H27.7707ZM31.8787 49.26V47.206V46.8012V40.5327H32.8844V49.26H31.8787ZM38.4018 49.3793C37.9018 49.3793 37.4515 49.2799 37.0509 49.081C36.6503 48.8822 36.3293 48.6094 36.0878 48.2628C35.8464 47.9162 35.7143 47.5214 35.6915 47.0782H36.7143C36.754 47.4731 36.933 47.7998 37.2512 48.0583C37.5722 48.314 37.9557 48.4418 38.4018 48.4418C38.7597 48.4418 39.0779 48.358 39.3563 48.1904C39.6375 48.0228 39.8577 47.7927 40.0168 47.5001C40.1787 47.2046 40.2597 46.8708 40.2597 46.4986C40.2597 46.1179 40.1759 45.7785 40.0083 45.4802C39.8435 45.179 39.6162 44.9418 39.3265 44.7685C39.0367 44.5952 38.7057 44.5072 38.3336 44.5043C38.0665 44.5015 37.7924 44.5427 37.5111 44.6279C37.2299 44.7103 36.9983 44.8168 36.8165 44.9475L35.8279 44.8282L36.3563 40.5327H40.8904V41.4702H37.2427L36.9358 44.0441H36.987C37.166 43.902 37.3904 43.7841 37.6603 43.6904C37.9302 43.5966 38.2114 43.5498 38.504 43.5498C39.0381 43.5498 39.514 43.6776 39.9316 43.9333C40.352 44.1861 40.6816 44.5327 40.9202 44.9731C41.1617 45.4134 41.2824 45.9162 41.2824 46.4816C41.2824 47.0384 41.1574 47.5356 40.9074 47.9731C40.6603 48.4077 40.3194 48.7515 39.8847 49.0043C39.45 49.2543 38.9557 49.3793 38.4018 49.3793ZM45.8219 49.3793C45.1798 49.3793 44.6329 49.2046 44.1812 48.8552C43.7295 48.5029 43.3844 47.9929 43.1457 47.3253C42.9071 46.6549 42.7878 45.8452 42.7878 44.8964C42.7878 43.9532 42.9071 43.1478 43.1457 42.4802C43.3872 41.8097 43.7338 41.2983 44.1855 40.9461C44.64 40.591 45.1855 40.4134 45.8219 40.4134C46.4582 40.4134 47.0022 40.591 47.454 40.9461C47.9085 41.2983 48.2551 41.8097 48.4937 42.4802C48.7352 43.1478 48.8559 43.9532 48.8559 44.8964C48.8559 45.8452 48.7366 46.6549 48.498 47.3253C48.2594 47.9929 47.9142 48.5029 47.4625 48.8552C47.0108 49.2046 46.4639 49.3793 45.8219 49.3793ZM45.8219 48.4418C46.4582 48.4418 46.9525 48.135 47.3048 47.5214C47.6571 46.9077 47.8332 46.0327 47.8332 44.8964C47.8332 44.1407 47.7522 43.4972 47.5903 42.966C47.4312 42.4347 47.2011 42.0299 46.9 41.7515C46.6017 41.4731 46.2423 41.3339 45.8219 41.3339C45.1912 41.3339 44.6983 41.6449 44.3432 42.2671C43.988 42.8864 43.8105 43.7628 43.8105 44.8964C43.8105 45.652 43.89 46.2941 44.0491 46.8225C44.2082 47.3509 44.4369 47.7529 44.7352 48.0285C45.0363 48.304 45.3986 48.4418 45.8219 48.4418ZM53.3219 49.3793C52.6798 49.3793 52.1329 49.2046 51.6812 48.8552C51.2295 48.5029 50.8844 47.9929 50.6457 47.3253C50.4071 46.6549 50.2878 45.8452 50.2878 44.8964C50.2878 43.9532 50.4071 43.1478 50.6457 42.4802C50.8872 41.8097 51.2338 41.2983 51.6855 40.9461C52.14 40.591 52.6855 40.4134 53.3219 40.4134C53.9582 40.4134 54.5022 40.591 54.954 40.9461C55.4085 41.2983 55.7551 41.8097 55.9937 42.4802C56.2352 43.1478 56.3559 43.9532 56.3559 44.8964C56.3559 45.8452 56.2366 46.6549 55.998 47.3253C55.7594 47.9929 55.4142 48.5029 54.9625 48.8552C54.5108 49.2046 53.9639 49.3793 53.3219 49.3793ZM53.3219 48.4418C53.9582 48.4418 54.4525 48.135 54.8048 47.5214C55.1571 46.9077 55.3332 46.0327 55.3332 44.8964C55.3332 44.1407 55.2522 43.4972 55.0903 42.966C54.9312 42.4347 54.7011 42.0299 54.4 41.7515C54.1017 41.4731 53.7423 41.3339 53.3219 41.3339C52.6912 41.3339 52.1983 41.6449 51.8432 42.2671C51.488 42.8864 51.3105 43.7628 51.3105 44.8964C51.3105 45.652 51.39 46.2941 51.5491 46.8225C51.7082 47.3509 51.9369 47.7529 52.2352 48.0285C52.5363 48.304 52.8986 48.4418 53.3219 48.4418Z" fill="black"/>
<path d="M62.3563 5H68.6976" stroke="black"/>
<path d="M30.8847 13.5793C30.5268 13.5736 30.1688 13.5054 29.8108 13.3748C29.4529 13.2441 29.1262 13.0239 28.8307 12.7143C28.5353 12.4018 28.2981 11.9799 28.1191 11.4486C27.9401 10.9145 27.8506 10.2441 27.8506 9.43726C27.8506 8.66454 27.9231 7.97988 28.0679 7.38329C28.2128 6.78385 28.4231 6.27959 28.6986 5.8705C28.9742 5.45857 29.3066 5.14607 29.6958 4.933C30.0878 4.71993 30.5296 4.6134 31.0211 4.6134C31.5097 4.6134 31.9444 4.71141 32.325 4.90743C32.7086 5.10062 33.0211 5.3705 33.2625 5.71709C33.504 6.06368 33.6603 6.46283 33.7313 6.91454H32.6915C32.5949 6.52249 32.4074 6.19721 32.129 5.93868C31.8506 5.68016 31.4813 5.5509 31.0211 5.5509C30.3449 5.5509 29.8123 5.84493 29.4231 6.433C29.0367 7.02107 28.8421 7.84635 28.8393 8.90885H28.9074C29.0665 8.66738 29.2554 8.46141 29.4742 8.29096C29.6958 8.11766 29.9401 7.98414 30.2072 7.89039C30.4742 7.79664 30.7569 7.74976 31.0552 7.74976C31.5552 7.74976 32.0125 7.87476 32.4273 8.12476C32.8421 8.37192 33.1745 8.71425 33.4245 9.15175C33.6745 9.58641 33.7995 10.085 33.7995 10.6475C33.7995 11.1873 33.6787 11.6816 33.4373 12.1304C33.1958 12.5765 32.8563 12.9316 32.4188 13.1958C31.9841 13.4572 31.4728 13.585 30.8847 13.5793ZM30.8847 12.6418C31.2427 12.6418 31.5637 12.5523 31.8478 12.3733C32.1347 12.1944 32.3606 11.9543 32.5253 11.6532C32.6929 11.352 32.7768 11.0168 32.7768 10.6475C32.7768 10.2867 32.6958 9.95857 32.5339 9.66312C32.3748 9.36482 32.1546 9.1276 31.8733 8.95147C31.5949 8.77533 31.2768 8.68726 30.9188 8.68726C30.6489 8.68726 30.3975 8.74124 30.1645 8.8492C29.9316 8.95431 29.727 9.0992 29.5509 9.28385C29.3776 9.46851 29.2412 9.68016 29.1418 9.9188C29.0424 10.1546 28.9927 10.4032 28.9927 10.6645C28.9927 11.0111 29.0736 11.335 29.2356 11.6361C29.4003 11.9373 29.6248 12.1802 29.9089 12.3648C30.1958 12.5495 30.5211 12.6418 30.8847 12.6418ZM38.3219 13.5793C37.6798 13.5793 37.1329 13.4046 36.6812 13.0552C36.2295 12.7029 35.8844 12.1929 35.6457 11.5253C35.4071 10.8549 35.2878 10.0452 35.2878 9.09635C35.2878 8.15317 35.4071 7.34778 35.6457 6.68016C35.8872 6.00971 36.2338 5.49834 36.6855 5.14607C37.14 4.79096 37.6855 4.6134 38.3219 4.6134C38.9582 4.6134 39.5022 4.79096 39.954 5.14607C40.4085 5.49834 40.7551 6.00971 40.9937 6.68016C41.2352 7.34778 41.3559 8.15317 41.3559 9.09635C41.3559 10.0452 41.2366 10.8549 40.998 11.5253C40.7594 12.1929 40.4142 12.7029 39.9625 13.0552C39.5108 13.4046 38.9639 13.5793 38.3219 13.5793ZM38.3219 12.6418C38.9582 12.6418 39.4525 12.335 39.8048 11.7214C40.1571 11.1077 40.3332 10.2327 40.3332 9.09635C40.3332 8.34067 40.2522 7.69721 40.0903 7.16596C39.9312 6.63471 39.7011 6.22988 39.4 5.95147C39.1017 5.67306 38.7423 5.53385 38.3219 5.53385C37.6912 5.53385 37.1983 5.84493 36.8432 6.46709C36.488 7.08641 36.3105 7.96283 36.3105 9.09635C36.3105 9.85204 36.39 10.4941 36.5491 11.0225C36.7082 11.5509 36.9369 11.9529 37.2352 12.2285C37.5363 12.504 37.8986 12.6418 38.3219 12.6418ZM45.8219 13.5793C45.1798 13.5793 44.6329 13.4046 44.1812 13.0552C43.7295 12.7029 43.3844 12.1929 43.1457 11.5253C42.9071 10.8549 42.7878 10.0452 42.7878 9.09635C42.7878 8.15317 42.9071 7.34778 43.1457 6.68016C43.3872 6.00971 43.7338 5.49834 44.1855 5.14607C44.64 4.79096 45.1855 4.6134 45.8219 4.6134C46.4582 4.6134 47.0022 4.79096 47.454 5.14607C47.9085 5.49834 48.2551 6.00971 48.4937 6.68016C48.7352 7.34778 48.8559 8.15317 48.8559 9.09635C48.8559 10.0452 48.7366 10.8549 48.498 11.5253C48.2594 12.1929 47.9142 12.7029 47.4625 13.0552C47.0108 13.4046 46.4639 13.5793 45.8219 13.5793ZM45.8219 12.6418C46.4582 12.6418 46.9525 12.335 47.3048 11.7214C47.6571 11.1077 47.8332 10.2327 47.8332 9.09635C47.8332 8.34067 47.7522 7.69721 47.5903 7.16596C47.4312 6.63471 47.2011 6.22988 46.9 5.95147C46.6017 5.67306 46.2423 5.53385 45.8219 5.53385C45.1912 5.53385 44.6983 5.84493 44.3432 6.46709C43.988 7.08641 43.8105 7.96283 43.8105 9.09635C43.8105 9.85204 43.89 10.4941 44.0491 11.0225C44.2082 11.5509 44.4369 11.9529 44.7352 12.2285C45.0363 12.504 45.3986 12.6418 45.8219 12.6418ZM53.3219 13.5793C52.6798 13.5793 52.1329 13.4046 51.6812 13.0552C51.2295 12.7029 50.8844 12.1929 50.6457 11.5253C50.4071 10.8549 50.2878 10.0452 50.2878 9.09635C50.2878 8.15317 50.4071 7.34778 50.6457 6.68016C50.8872 6.00971 51.2338 5.49834 51.6855 5.14607C52.14 4.79096 52.6855 4.6134 53.3219 4.6134C53.9582 4.6134 54.5022 4.79096 54.954 5.14607C55.4085 5.49834 55.7551 6.00971 55.9937 6.68016C56.2352 7.34778 56.3559 8.15317 56.3559 9.09635C56.3559 10.0452 56.2366 10.8549 55.998 11.5253C55.7594 12.1929 55.4142 12.7029 54.9625 13.0552C54.5108 13.4046 53.9639 13.5793 53.3219 13.5793ZM53.3219 12.6418C53.9582 12.6418 54.4525 12.335 54.8048 11.7214C55.1571 11.1077 55.3332 10.2327 55.3332 9.09635C55.3332 8.34067 55.2522 7.69721 55.0903 7.16596C54.9312 6.63471 54.7011 6.22988 54.4 5.95147C54.1017 5.67306 53.7423 5.53385 53.3219 5.53385C52.6912 5.53385 52.1983 5.84493 51.8432 6.46709C51.488 7.08641 51.3105 7.96283 51.3105 9.09635C51.3105 9.85204 51.39 10.4941 51.5491 11.0225C51.7082 11.5509 51.9369 11.9529 52.2352 12.2285C52.5363 12.504 52.8986 12.6418 53.3219 12.6418Z" fill="black"/>
<path d="M89.7649 55.72H171.145V165H89.7649V55.72Z" fill="#065ADF"/>
<path d="M300.438 40.5467H381.818V165H300.438V40.5467Z" fill="#065ADF"/>
<path d="M511.11 32.5733H592.49V165H511.11V32.5733Z" fill="#065ADF"/>
<path d="M175.373 143.213H256.753V165H175.373V143.213Z" fill="#407E6A"/>
<path d="M386.045 58.2H467.426V165H386.045V58.2Z" fill="#407E6A"/>
<path d="M596.718 47.4H678.098V165H596.718V47.4Z" fill="#407E6A"/>
</svg>
