<svg width="38" height="42" viewBox="0 0 38 42" fill="none" xmlns="http://www.w3.org/2000/svg">
<g clip-path="url(#clip0_2_30)">
<path d="M24.6317 3.66985C22.8632 6.745 19.4647 9.91454 15.3002 11.1492C10.0476 12.7065 4.14418 11.0152 0.0731396 6.95813C0.0233219 7.87154 -0.00158691 8.89913 -0.00158691 10.0546C-0.00158691 24.5352 5.23861 36.8632 12.5665 41.4988C12.5618 41.2857 12.5587 41.0725 12.5587 40.8579C12.5587 33.0056 15.4419 26.6406 18.9976 26.6406C21.1289 26.6406 23.0189 28.9287 24.1911 32.4514C26.7085 30.3521 30.7655 29.7691 34.0597 30.4191C36.5288 24.7818 37.9969 17.7212 37.9969 10.0561C37.9969 -3.79273 32.0405 0.61144 24.6317 3.66985Z" fill="#E5E5E5"/>
<path d="M15.3018 11.1488C19.4662 9.91422 22.8632 6.74468 24.6332 3.66953C22.1719 4.68646 19.5487 5.5542 16.9317 5.5542C7.0943 5.5542 0.820386 -6.70226 0.0731201 6.95934C4.14572 11.0164 10.0476 12.7077 15.3002 11.1504L15.3018 11.1488Z" fill="#ACACAC"/>
<path d="M24.1911 32.4527C24.9742 34.8077 25.4381 37.7139 25.4381 40.8591C25.4381 41.0737 25.435 41.2884 25.4303 41.5C28.8786 39.3185 31.8661 35.4319 34.0612 30.4203C30.767 29.7718 26.71 30.3533 24.1927 32.4527H24.1911Z" fill="#ACACAC"/>
</g>
<defs>
<clipPath id="clip0_2_30">
<rect width="38" height="41" fill="white" transform="translate(-0.00158691 0.5)"/>
</clipPath>
</defs>
</svg>
